<svg xmlns="http://www.w3.org/2000/svg" width="44" height="50" fill="none" viewBox="0 0 44 50">
  <path fill="#800016" d="M4.205 3.313A3.312 3.312 0 0 0 .892 6.624v3.313a3.313 3.313 0 0 0 3.313 3.312H5.86v29.813a6.625 6.625 0 0 0 6.625 6.624H32.36a6.625 6.625 0 0 0 6.625-6.624V13.25h1.656a3.312 3.312 0 0 0 3.313-3.313V6.626a3.313 3.313 0 0 0-3.313-3.313H29.05A3.313 3.313 0 0 0 25.736 0h-6.625A3.313 3.313 0 0 0 15.8 3.313H4.205Zm9.937 13.25a1.656 1.656 0 0 1 1.657 1.656v23.187a1.656 1.656 0 1 1-3.313 0V18.22a1.656 1.656 0 0 1 1.656-1.657Zm8.282 0a1.656 1.656 0 0 1 1.656 1.656v23.187a1.656 1.656 0 1 1-3.313 0V18.22a1.656 1.656 0 0 1 1.657-1.657Zm9.937 1.656v23.187a1.656 1.656 0 1 1-3.312 0V18.22a1.656 1.656 0 1 1 3.312 0Z"/>
</svg>
