<svg xmlns="http://www.w3.org/2000/svg" width="24" height="25" fill="none" viewBox="0 0 24 25">
  <path fill="#fff" d="M5.482 2.075a1.028 1.028 0 0 0-.328-.286.986.986 0 0 0-1.195.188L2.41 3.594c-.725.756-.992 1.827-.676 2.766a27.628 27.628 0 0 0 6.252 10.324 26.235 26.235 0 0 0 9.912 6.513c.901.33 1.929.051 2.655-.703l1.55-1.616c.103-.106.182-.234.233-.374a1.1 1.1 0 0 0-.052-.87 1.05 1.05 0 0 0-.275-.342l-3.46-2.803a.978.978 0 0 0-.87-.19l-3.285.854a2.517 2.517 0 0 1-1.334-.017 2.596 2.596 0 0 1-1.152-.7l-3.684-3.839a2.753 2.753 0 0 1-.672-1.2 2.836 2.836 0 0 1-.018-1.389l.822-3.422a1.103 1.103 0 0 0-.183-.906l-2.69-3.605ZM2.827.8c.262-.274.577-.486.925-.623A2.522 2.522 0 0 1 5.9.316c.328.18.616.432.844.738l2.69 3.603c.494.66.668 1.521.473 2.334l-.82 3.422a1.076 1.076 0 0 0 .266 1.004l3.686 3.84c.124.129.278.222.448.271a.98.98 0 0 0 .518.006l3.283-.854c.385-.1.787-.108 1.175-.023.388.085.753.261 1.066.515l3.459 2.803c1.243 1.008 1.357 2.922.244 4.08l-1.55 1.615c-1.11 1.156-2.77 1.664-4.316 1.097a27.824 27.824 0 0 1-10.515-6.906A29.306 29.306 0 0 1 .222 6.91C-.32 5.3.168 3.57 1.278 2.414L2.828.8h-.001Z"/>
</svg>
