<svg xmlns="http://www.w3.org/2000/svg" width="20" height="20" fill="none" viewBox="0 0 20 20">
  <path fill="#fff" d="M19.585 9.84 11.061.818 10.49.214A.676.676 0 0 0 10 0a.676.676 0 0 0-.49.214L.415 9.839a1.497 1.497 0 0 0-.31.493 1.57 1.57 0 0 0-.105.582c.009.822.655 1.478 1.432 1.478h.937V20h15.262v-7.608h.957a1.37 1.37 0 0 0 1-.439c.13-.138.235-.303.306-.485a1.56 1.56 0 0 0 .106-.573c0-.397-.148-.773-.415-1.056Zm-8.35 8.478h-2.47v-4.765h2.47v4.765Zm4.807-7.607v7.607h-3.395v-5.325c0-.517-.395-.935-.882-.935h-3.53c-.487 0-.882.418-.882.935v5.325H3.958v-7.607H1.84l8.162-8.636.51.54 7.65 8.096h-2.12Z"/>
</svg>
