<svg xmlns="http://www.w3.org/2000/svg" width="26" height="24" fill="none" viewBox="0 0 26 24">
  <path stroke="#fff" stroke-linecap="round" stroke-linejoin="round" stroke-width="2" d="M11.982 1.696c.352-.928 1.684-.928 2.037 0l2.277 6.308a1.089 1.089 0 0 0 1.018.696h5.596c1.034 0 1.485 1.287.672 1.917L19.6 14.2a1.065 1.065 0 0 0-.354 1.201l1.454 6.163c.354.99-.792 1.84-1.659 1.231l-5.408-3.432a1.1 1.1 0 0 0-1.265 0l-5.409 3.432c-.865.61-2.013-.242-1.659-1.23L6.755 15.4a1.065 1.065 0 0 0-.355-1.2l-3.98-3.583c-.814-.63-.361-1.917.67-1.917h5.596a1.088 1.088 0 0 0 1.019-.696l2.276-6.308h.002Z"/>
</svg>
