<svg xmlns="http://www.w3.org/2000/svg" width="57" height="58" fill="none" viewBox="0 0 57 58">
  <path fill="#00043A" d="M28.163 0c7.47 0 14.633 3.024 19.915 8.406 5.281 5.382 8.248 12.682 8.248 20.294s-2.967 14.912-8.248 20.294C42.796 54.376 35.633 57.4 28.163 57.4c-7.47 0-14.633-3.024-19.914-8.406C2.967 43.612 0 36.312 0 28.7S2.967 13.788 8.249 8.406C13.53 3.024 20.694 0 28.163 0ZM15.842 26.906c-.467 0-.915.19-1.245.526-.33.336-.515.792-.515 1.268s.185.932.515 1.268c.33.337.778.526 1.245.526h20.394l-7.559 7.699a1.8 1.8 0 0 0-.516 1.27 1.825 1.825 0 0 0 .516 1.27 1.762 1.762 0 0 0 1.247.526 1.733 1.733 0 0 0 1.246-.526L41.73 29.97a1.796 1.796 0 0 0 .518-1.27 1.822 1.822 0 0 0-.517-1.27L31.17 16.668a1.762 1.762 0 0 0-1.247-.526 1.733 1.733 0 0 0-1.246.526 1.8 1.8 0 0 0-.516 1.27 1.825 1.825 0 0 0 .516 1.27l7.559 7.698H15.842Z"/>
</svg>
