<?xml version='1.0' encoding='utf-8'?>
<svg xmlns="http://www.w3.org/2000/svg" width="297mm" height="210mm"  
     style="shape-rendering:geometricPrecision; text-rendering:geometricPrecision; image-rendering:optimizeQuality; fill-rule:evenodd; clip-rule:evenodd" viewBox="0 0 297 210" preserveAspectRatio="xMidYMid meet"> <defs> <style type="text/css">  .fil6 {fill:white} .fil5 {fill:#00247D} .fil7 {fill:#CF142B} .fil0 {fill:#1F1A17;fill-rule:nonzero} .fil1 {fill:#8F5444;fill-rule:nonzero} .fil3 {fill:#B7673C;fill-rule:nonzero} .fil2 {fill:#F7C5B4;fill-rule:nonzero} .fil4 {fill:#E4A794;fill-rule:nonzero}  </style> </defs> <g id="Warstwa_x0020_1"> <metadata id="CorelCorpID_0Corel-Layer"/> <g id="_289806536"> <path id="_110498088" class="fil0" d="M132.375 9.8575c1.5666,0.6682 2.7307,1.8723 3.3461,3.2785 0.6173,1.4106 0.683,3.0246 0.0506,4.5072 -0.6327,1.4832 -1.8432,2.5533 -3.2886,3.084 -0.0596,0.0219 -0.1197,0.0427 -0.18,0.0628l-0.0855 0.2005 -0.1781 0.4173 130.161 55.5184 -28.0533 65.7699 -130.161 -55.5183 -26.5229 62.1817c0.2277,0.0232 0.4525,0.0547 0.6749,0.0938 0.834,0.1468 1.6347,0.403 2.4095,0.7432 0.7333,0.3221 1.235,0.8222 1.7577,1.354 0.0033,0.0032 0.0065,0.0065 0.0095,0.0099l0.0326 0.0331c0.1413,0.1438 0.2848,0.2899 0.4355,0.4349 0.5134,0.4945 1.0562,1.0084 1.6293,1.5284 0.5709,0.5179 1.166,1.0363 1.7819,1.5374 0.402,0.3271 0.8348,0.6363 1.3107,0.9147 0.4731,0.2768 0.9927,0.525 1.5723,0.7322 0.0063,0.0022 0.0122,0.0048 0.0181,0.0074 0.6315,0.2431 1.1223,0.658 1.5351,1.1946 0.4053,0.5272 0.7326,1.1675 1.0449,1.8755 0.6165,1.3968 0.5681,3.0712 0.5168,4.8497 -0.0064,0.2183 -0.0128,0.4383 -0.018,0.6594l0 0.0035 0 0.0009c-0.012,0.514 -0.0174,1.0343 -0.0005,1.5553 0.0003,0.0042 0.0005,0.0084 0.0005,0.0128 0.0147,0.4442 0.0459,0.8886 0.1029,1.3303 0.0514,0.397 0.1211,0.794 0.2157,1.1895 1.4043,1.0457 2.8293,2.0717 4.2726,3.08 1.4725,1.0286 2.9666,2.0408 4.4797,3.0382 0.6162,0.406 1.3244,0.7663 2.0328,1.1265 1.3546,0.6888 2.7099,1.378 3.5675,2.466l-0.0005 0.0004 0.0005 0.0006c4.2984,5.4902 4.1665,11.1266 1.9681,15.2548 -0.9026,1.6951 -2.1545,3.1356 -3.5921,4.2072 -1.4414,1.0744 -3.0714,1.7791 -4.7255,1.9991 -3.1252,0.4156 -6.3247,-0.8916 -8.4972,-4.6871 -0.8062,-0.7325 -1.8133,-1.5811 -2.929,-2.3527 -1.1232,-0.7769 -2.3584,-1.4771 -3.6111,-1.9034 -0.7985,-0.2715 -1.6056,-0.1904 -2.4528,-0.1051 -0.594,0.0597 -1.207,0.1214 -1.8618,0.0732 -0.9791,-0.0722 -2.0115,-0.3121 -3.0006,-0.6153 -0.982,-0.3011 -1.9198,-0.6641 -2.7194,-0.9863 -0.9571,-0.3858 -1.8949,-0.7853 -2.8066,-1.2029 -0.8441,-0.3867 -1.6603,-0.7863 -2.4415,-1.2014 -0.2869,0.4196 -0.6321,0.7638 -0.9587,1.0212 -0.1902,0.15 -0.3759,0.2718 -0.5409,0.3626 -0.433,0.2383 -0.9621,0.3053 -1.5871,0.201 -0.5929,-0.0988 -1.2773,-0.3543 -2.053,-0.7661 -0.0096,-0.0045 -0.0191,-0.0095 -0.0283,-0.0154 -0.5993,-0.3854 -1.135,-0.8516 -1.6725,-1.3193 -0.3494,-0.3041 -0.6999,-0.609 -1.052,-0.8796 -0.0384,-0.0296 -0.0771,-0.0589 -0.1158,-0.0879 0.7819,1.2375 1.4611,2.3912 1.6939,3.4198 0.2192,0.9679 -0.2612,1.8564 -0.5519,2.3943l-0.0049 0.0088c-0.1336,0.2472 -0.3867,0.5208 -0.7164,0.7656 -0.4212,0.3126 -0.9762,0.5861 -1.5728,0.7022 -0.6084,0.1184 -1.2609,0.0748 -1.8647,-0.2516 -0.0996,-0.0538 -0.1978,-0.1155 -0.294,-0.1852l-2.4863 5.8291c-0.0507,0.1191 -0.1884,0.1746 -0.3075,0.1239l-7.3369 -3.1293c-0.1191,-0.0507 -0.1746,-0.1885 -0.1239,-0.3076l3.9968 -9.3704c-0.0662,-0.0967 -0.132,-0.1936 -0.1976,-0.2903l-0.0077 -0.0113c-0.1541,-0.2273 -0.3072,-0.4547 -0.4602,-0.682 -0.8138,-1.2097 -1.6279,-2.4194 -2.6058,-3.6087l0.0001 -0.0001c-0.0059,-0.0073 -0.0115,-0.0148 -0.0167,-0.0229 -0.2317,-0.3629 -0.4166,-0.7191 -0.598,-1.0687 -0.1521,-0.2929 -0.3018,-0.5814 -0.47,-0.8561 -0.4828,-0.788 -0.9192,-1.5482 -1.2173,-2.2952 -0.3045,-0.7638 -0.4619,-1.5086 -0.3731,-2.2447 0.0907,-0.7526 0.42,-1.4101 0.9408,-2.0508 0.4869,-0.5989 1.1406,-1.181 1.9233,-1.8154 -0.0015,-0.0416 -0.0027,-0.0836 -0.003,-0.126 -0.0063,-0.8204 0.1912,-1.6467 0.6298,-2.483 0.4139,-0.7891 1.0417,-1.5855 1.9151,-2.3919 -0.3592,-0.8566 -0.5081,-1.7018 -0.4465,-2.5354 0.1248,-1.6896 1.1124,-3.3127 2.9627,-4.8688 0.004,-0.0034 0.0081,-0.0065 0.0123,-0.0095l-0.0005 -0.0006c0.9544,-0.7005 1.9466,-1.4013 2.9853,-2.0857 0.9642,-0.6354 1.9618,-1.2516 2.9964,-1.8332 -0.1708,-0.2321 -0.351,-0.4573 -0.5427,-0.6743 -1.2107,-1.3702 -2.541,-2.5939 -3.9674,-3.6999 -1.4294,-1.1083 -2.9532,-2.0974 -4.5479,-2.9965l-0.0004 0.0007 -11.844 -6.6416c-2.049,-0.9193 -3.2882,-1.9458 -4.0021,-2.9253 -1.0627,-1.4581 -0.9724,-2.8215 -0.6438,-3.6018 0.3304,-0.7848 1.137,-1.879 2.9413,-2.1471 1.1818,-0.1756 2.7988,0.0082 5.0015,0.8853l0.0015 0.0006 0.0003 -0.0006c1.6069,0.6504 3.103,1.3671 4.6181,2.0925 0.3232,0.1549 0.6475,0.3103 0.9742,0.4656 0.0052,0.0022 0.0102,0.0047 0.0152,0.0072 0.6137,0.2915 1.2371,0.5835 1.8822,0.8735 0.9022,0.4056 1.8679,0.807 2.8406,1.2112 1.4357,0.5968 2.8869,1.2 4.2374,1.8635l0.2142 0.1054 0.0008 0.0003 0.0034 0.0017 0.004 0.0021 0.0006 0.0002 0.0039 0.0021 0.0006 0.0004 0.0096 0.0055c0.1024,0.0511 0.1706,0.0854 0.198,0.0994 1.7064,0.8661 3.3352,1.8494 4.9667,2.8344 1.9126,1.1546 3.8294,2.3118 5.8557,3.2719 0.3092,0.1464 0.4314,0.2134 0.513,0.2581 0.0794,0.0435 0.1148,0.0628 0.2953,0.1317l54.9368 -128.798c-0.0275,-0.0576 -0.054,-0.1154 -0.0796,-0.1737 -0.6172,-1.4107 -0.6829,-3.0246 -0.0505,-4.5073 0.6326,-1.4832 1.8433,-2.5531 3.2886,-3.084 1.4404,-0.5289 3.1149,-0.522 4.6815,0.1462z"/> <path id="_106131712" class="fil1" d="M135.292 13.3233c-0.5691,-1.3004 -1.6475,-2.4147 -3.1001,-3.0343 -1.4525,-0.6194 -3.0034,-0.6265 -4.3364,-0.137 -1.3279,0.4878 -2.4393,1.4687 -3.0187,2.8269 -0.5796,1.359 -0.5185,2.8403 0.0487,4.1365 0.5692,1.3003 1.6476,2.4147 3.1,3.0342 1.4526,0.6195 3.0035,0.6264 4.3365,0.1369 1.3281,-0.4876 2.4393,-1.4685 3.0187,-2.8269 0.5795,-1.3588 0.5185,-2.8401 -0.0487,-4.1363z"/> <path id="_106130248" class="fil2" d="M52.5181 185.173c0.2351,-0.6517 0.5335,-1.2061 0.9067,-1.6451 0.4705,-0.5536 1.0565,-0.9239 1.7794,-1.0764 0.1267,-0.0264 0.2508,0.055 0.2772,0.1817 0.0264,0.1267 -0.055,0.2509 -0.1817,0.2773 -0.6143,0.1296 -1.1139,0.4462 -1.5168,0.9203 -0.3966,0.4666 -0.7027,1.0861 -0.9345,1.8308 0.2344,0.3448 0.4715,0.6884 0.7125,1.0286l0.003 0.0041 0.0356 0.0502 0.0128 0.0181 0.0102 0.0142 0.0028 0.004c0.3225,0.452 0.6575,0.9029 1.0136,1.3517l0.0007 0.0009 0.0282 0.0356 0.0044 0.0052 0.0103 0.0131 0.0146 0.0183 0.0077 0.0096 0.0069 0.0087 0.0147 0.0183 0.0113 0.0139 0.0034 0.0044 0.0295 0.0366c0.3575,0.4435 0.8231,0.8111 1.3057,1.1921l0.0154 0.0122 0.0001 0.0001 0.0152 0.012 0.0005 0.0003 0.0149 0.0119 0.0006 0.0004 0.0148 0.0117 0.0009 0.0007 0.0144 0.0115 0.0012 0.0008 0.0143 0.0114 0.0013 0.001 0.0141 0.0112 0.0015 0.0011 0.0294 0.0233 0.002 0.0016 0.0289 0.0229 0.0024 0.0019 0.0132 0.0104 0.0025 0.0021 0.0129 0.0102 0.0028 0.0023 0.0127 0.0101 0.0031 0.0024 0.028 0.0223 0.0034 0.0028 0.012 0.0095 0.0156 0.0125 0.0037 0.003 0.0118 0.0094 0.0039 0.0032 0.0115 0.0092 0.0043 0.0036 0.0314 0.0253 0.0109 0.0087 0.0048 0.004 0.0107 0.0085 0.0052 0.0043c0.0314,0.0255 0.0628,0.0511 0.0943,0.0771l0.009 0.0073 0.0067 0.0057 0.0159 0.013 0.0085 0.007 0.0071 0.0059c0.1579,0.1311 0.3155,0.2676 0.4702,0.4135 0.0049,0.0039 0.0094,0.0081 0.014,0.0123 0.2378,0.2249 0.4317,0.4844 0.6293,0.7489l0.0227 0.0304 0.0001 0.0001 0.0227 0.0303 0.0002 0.0005 0.0112 0.0148 0.0002 0.0004 0.0112 0.0148 0.0004 0.0006 0.011 0.0147 0.0005 0.0007 0.0208 0.0274 0.0017 0.0023 0.0006 0.0009 0.0018 0.0022c0.0337,0.0446 0.0678,0.0893 0.1023,0.1336l0.0013 0.0016 0.0106 0.0134 0.0012 0.0017 0.0463 0.0583 0.0016 0.0022 0.0103 0.0127 0.0018 0.0023 0.0102 0.0127 0.0019 0.0022 0.0224 0.0273 0.002 0.0025 0.0102 0.0123 0.002 0.0026 0.0102 0.0121 0.0021 0.0025 0.0102 0.0121 0.0023 0.0027 0.01 0.012 0.0024 0.0027 0.0101 0.0119 0.0124 0.0144 0.0025 0.0029 0.01 0.0116 0.0025 0.003 0.01 0.0112 0.0027 0.0032 0.01 0.0113 0.0027 0.0031 0.0098 0.0111 0.003 0.0031 0.0098 0.0111 0.003 0.0032 0.0098 0.0108 0.0031 0.0034 0.0099 0.0107c0.0129,0.0141 0.026,0.0278 0.039,0.0417l0.0034 0.0036 0.0099 0.0102 0.0035 0.0036 0.0096 0.0099 0.0036 0.0038 0.0098 0.0099 0.0037 0.0038 0.0096 0.0096 0.0039 0.0039 0.0096 0.0096 0.0135 0.0133 0.0041 0.004 0.0097 0.0092 0.0137 0.013 0.0042 0.0042 0.0095 0.009 0.0045 0.0041 0.0095 0.0087 0.0044 0.0042 0.0095 0.0087 0.0141 0.0127 0.0047 0.0043 0.0095 0.0084 0.0142 0.0125 0.0049 0.0043 0.0094 0.0081 0.0051 0.0044 0.0094 0.0079 0.0051 0.0044 0.0094 0.0078 0.0054 0.0045 0.0009 0.0007 0.0273 0.0222 0.0014 0.0012 0.0092 0.0072 0.0621 0.0574 0.0002 0.0002 0.0071 0.0093 0.0015 0.0021 0.0026 0.0034 0.0026 0.0035 0.0026 0.0034 0.0021 0.0029 0.0004 0.0005 0.0025 0.0034 0.0027 0.0036 0.0026 0.0034 0.0026 0.0033 0.0007 0.001 0.0018 0.0024 0.0027 0.0035 0.0025 0.0033 0.0027 0.0034 0.0054 0.0069 0.0026 0.0033c0.0414,0.0529 0.0845,0.1043 0.1292,0.154 0.0381,0.0424 0.0749,0.0813 0.1111,0.1172l0.0026 0.0026 0.0021 0.0021 0.0006 0.0005 0.0024 0.0026 0.0078 0.0076 0.0015 0.0014 0.001 0.001 0.0003 0.0003 0.0098 0.0095 0.0012 0.0011 0.0289 0.0271c0.0073,0.0058 0.0139,0.0121 0.0204,0.0186 0.1418,0.1289 0.2898,0.2327 0.441,0.3146 0.4977,0.269 1.0427,0.3034 1.5543,0.2039 0.5232,-0.1018 1.0111,-0.3425 1.3821,-0.6178 0.2744,-0.2037 0.4799,-0.4221 0.5823,-0.6113l0.0047 -0.009c0.2596,-0.4799 0.6883,-1.273 0.5081,-2.0691 -0.2511,-1.1095 -1.0944,-2.4311 -2.002,-3.8534 -0.192,-0.3012 -0.0736,-0.1135 -0.2325,-0.3635 -0.5686,-0.3822 -1.1384,-0.7675 -1.6592,-1.242 -0.7955,-0.7248 -1.5738,-1.4905 -2.3335,-2.2991 -0.7557,-0.8043 -1.4928,-1.6511 -2.2102,-2.5421 -0.7705,-0.7436 -1.3603,-1.5879 -1.9299,-2.4031 -0.2986,-0.4276 -0.5917,-0.8472 -0.9073,-1.2439 -0.248,-0.3118 -0.4797,-0.5838 -0.7043,-0.8478 -0.159,-0.1868 -0.3147,-0.3696 -0.4646,-0.5517 -0.4665,0.245 -0.9,0.5478 -1.2831,0.9393 -0.4266,0.4356 -0.7927,0.9826 -1.0745,1.6832 -0.0481,0.12 -0.1848,0.1785 -0.305,0.1304 -0.12,-0.0482 -0.1784,-0.1846 -0.1303,-0.3051 0.307,-0.7613 0.7071,-1.3586 1.1755,-1.837 0.3973,-0.4056 0.8425,-0.7234 1.32,-0.9827 -0.522,-0.6765 -0.9337,-1.3636 -1.0859,-2.1947 -0.6567,0.5424 -1.207,1.0462 -1.6205,1.555 -0.4656,0.5724 -0.7589,1.1536 -0.8381,1.8102 -0.0786,0.6521 0.0651,1.3228 0.342,2.017 0.2837,0.7113 0.7097,1.452 1.1823,2.2236 0.1767,0.2883 0.3304,0.5845 0.4865,0.8855 0.1764,0.3397 0.356,0.6857 0.5684,1.0197 0.9895,1.2047 1.8072,2.4198 2.6245,3.6347l0.1949 0.2895z"/> <path id="_106133824" class="fil3" d="M52.9143 186.585l-3.7883 8.8817 6.9056 2.9455 2.4536 -5.7525 -0.0306 -0.0319 -0.0002 -0.0002 -0.0014 -0.0015 -0.0028 -0.003 -0.0016 -0.0016 -0.0014 -0.0015 -0.0028 -0.0029 0 0 -0.0014 -0.0017 -0.0014 -0.0014 -0.0014 -0.0015c-0.0159,-0.0166 -0.0312,-0.0333 -0.0464,-0.0501 -0.0407,-0.0453 -0.0814,-0.0935 -0.122,-0.1445l-0.0028 -0.0036 -0.0012 -0.0014 -0.0044 -0.0057 -0.0029 -0.0037 -0.0029 -0.0035 -0.0029 -0.0036 -0.0022 -0.0029 -0.0006 -0.0008 -0.0028 -0.0036 -0.0008 -0.0009 -0.0049 -0.0062 -0.0028 -0.0038 -0.0016 -0.002 -0.0012 -0.0016 -0.0028 -0.0037 -0.0028 -0.0037 -0.0029 -0.0037 -0.017 -0.0223 -0.0169 -0.0135 -0.0001 0 -0.0166 -0.0136 -0.0002 0 -0.0166 -0.0136 0 -0.0001 -0.0165 -0.0136 -0.0001 -0.0001 -0.0163 -0.0139 0 -0.0001 -0.0162 -0.0138 -0.0001 -0.0001 -0.0161 -0.014 0 0 -0.0158 -0.014 -0.0001 -0.0001 -0.0157 -0.0141 -0.0002 -0.0001 -0.0156 -0.0142 -0.0001 -0.0001 -0.0155 -0.0142 -0.0001 -0.0001 -0.0154 -0.0143 0 -0.0001 -0.0153 -0.0145 0 0 -0.0152 -0.0144 -0.0001 -0.0001 -0.015 -0.0146 -0.0001 -0.0001 -0.0148 -0.0145 -0.0001 -0.0002 -0.0149 -0.0147 0 0 -0.0147 -0.0148 -0.0001 -0.0001 -0.0146 -0.0148 -0.0001 -0.0001 -0.0144 -0.0149 -0.0001 0 -0.0145 -0.0151 0 -0.0001 -0.0143 -0.0149 0 -0.0001 -0.0142 -0.0151 -0.0001 -0.0002 -0.0139 -0.015 -0.0002 -0.0001 -0.014 -0.0151 0 -0.0001 -0.014 -0.0152 0 -0.0001 -0.0138 -0.0152 0 -0.0002 -0.0138 -0.0152 0 -0.0001 -0.0137 -0.0155 0 0 -0.0135 -0.0154 -0.0001 -0.0001 -0.0135 -0.0155 0 0 -0.0134 -0.0155 0 -0.0001 -0.0134 -0.0156 -0.0001 0 -0.0131 -0.0156 -0.0001 -0.0001 -0.0132 -0.0158 -0.0001 0 -0.013 -0.0156 -0.0001 -0.0001 -0.0131 -0.0157 0 -0.0001 -0.013 -0.0157 0 0 -0.0129 -0.0159 0 0 -0.0128 -0.0158 -0.0001 0 -0.0128 -0.0159 0 -0.0001 -0.0128 -0.0158 0 0 -0.0126 -0.016 0 0 -0.0126 -0.0158 -0.0001 -0.0001 -0.0126 -0.016 -0.0125 -0.0159 -0.0125 -0.0161 -0.0124 -0.016 -0.0124 -0.0161 -0.0124 -0.016 -0.0123 -0.0161 -0.0123 -0.0161 -0.0122 -0.0161 -0.0123 -0.016 -0.0121 -0.0161 -0.0121 -0.0161 -0.0122 -0.0162 -0.0121 -0.016 -0.0121 -0.0161 -0.012 -0.0161 -0.012 -0.0161 -0.012 -0.016 -0.012 -0.0161 -0.012 -0.016c-0.1866,-0.2499 -0.3698,-0.4949 -0.5741,-0.6882 -0.004,-0.0038 -0.0078,-0.0078 -0.0114,-0.0118l-0.0154 -0.0144 -0.0025 -0.0022 -0.0264 -0.0247 -0.0029 -0.0027 -0.0262 -0.024 -0.0032 -0.0031 -0.026 -0.0236 -0.0036 -0.0032 -0.0256 -0.0233 -0.0041 -0.0036 -0.0106 -0.0095 -0.0043 -0.0039 -0.0103 -0.0093 -0.0045 -0.0039 -0.0102 -0.0091 -0.0048 -0.0042 -0.01 -0.0089 -0.0049 -0.0044 -0.0099 -0.0085 -0.0051 -0.0046 -0.0096 -0.0085 -0.0053 -0.0046 -0.0095 -0.0083 -0.0057 -0.0049 -0.0092 -0.0081 -0.0058 -0.005 -0.0091 -0.0078 -0.0149 -0.0129 -0.0061 -0.0053 -0.0013 -0.0011 -0.0441 -0.0377 -0.0083 -0.007 -0.0069 -0.0059 -0.008 -0.0068 -0.0072 -0.006 -0.0079 -0.0067 -0.0073 -0.0062 -0.0152 -0.0128 -0.0074 -0.0062 -0.0079 -0.0066 -0.0071 -0.006 -0.0081 -0.0067 -0.0069 -0.0058 -0.0084 -0.0068 -0.0068 -0.0058 -0.0084 -0.007 -0.0067 -0.0054 -0.0086 -0.0072 -0.0063 -0.0052 -0.0091 -0.0074 -0.0062 -0.0052 -0.009 -0.0074 -0.0061 -0.005 -0.0093 -0.0077 -0.0058 -0.0048 -0.0094 -0.0077 -0.0057 -0.0046 -0.0097 -0.008c-0.0562,-0.0459 -0.1126,-0.0913 -0.169,-0.1363l-0.0032 -0.0026 -0.0122 -0.0097 -0.0031 -0.0024 -0.0123 -0.0098 -0.0029 -0.0024 -0.0125 -0.01 -0.0027 -0.0021 -0.0127 -0.0101 -0.0024 -0.002 -0.0129 -0.0103 -0.0024 -0.0017 -0.013 -0.0104 -0.0021 -0.0016 -0.0133 -0.0106 -0.0137 -0.0106 -0.0016 -0.0015 -0.0017 -0.0012 -0.001 -0.0009 -0.0281 -0.0223 -0.0013 -0.0009 -0.0141 -0.0111 -0.001 -0.0009 -0.0143 -0.0112 -0.0008 -0.0007 -0.0146 -0.0115 -0.0006 -0.0005 -0.0146 -0.0116 -0.0004 -0.0002 -0.015 -0.0119 -0.0001 -0.0001 -0.0151 -0.0119c-0.5051,-0.3989 -0.9925,-0.7836 -1.381,-1.2655l-0.0146 -0.0182 -0.0144 -0.0181 -0.0054 -0.0065 -0.0092 -0.0115 -0.0145 -0.0181c-0.5137,-0.6416 -0.9827,-1.2868 -1.4328,-1.9338z"/> <path id="_106132624" class="fil4" d="M72.3253 178.793c0.1317,-0.6028 0.1146,-1.2164 0.0058,-1.7885 -0.1972,-0.3363 -0.4648,-0.6123 -0.7916,-0.8372 -0.3447,-0.2374 -0.7569,-0.4195 -1.2231,-0.557 -0.3284,-0.0966 -0.5832,-0.1597 -0.827,-0.1712 -0.2379,-0.0112 -0.4772,0.0262 -0.7838,0.1286 -0.6863,0.2297 -1.1594,0.4845 -1.419,0.7647 -0.1059,0.114 -0.1731,0.2313 -0.2017,0.3512 -0.0278,0.1169 -0.0199,0.2412 0.024,0.3724 0.0803,0.2402 0.2753,0.5045 0.5846,0.793 0.6203,0.5078 1.2341,1.0072 1.7775,1.4148 0.5499,0.4124 1.0484,0.7491 1.4486,0.9411l0.0422 0.0203c0.3082,0.1482 0.533,0.2562 0.6082,0.1351 0.0073,-0.0143 0.0162,-0.0281 0.0266,-0.0411 0.3832,-0.4781 0.6132,-0.9985 0.7287,-1.5262z"/> <path id="_106133704" class="fil2" d="M69.8925 187.189c0.0031,-0.0054 0.0062,-0.0105 0.0096,-0.0157 0.1158,-0.1912 0.2165,-0.3975 0.2939,-0.6179 0.2591,-0.7372 0.2588,-1.6378 -0.3041,-2.6603 -0.136,-0.247 -0.3052,-0.502 -0.5118,-0.7641 -0.0044,-0.0056 -0.0087,-0.0116 -0.0125,-0.0175 -0.4454,-0.6336 -0.8532,-1.1723 -1.2303,-1.634 -0.3748,-0.4587 -0.7244,-0.8468 -1.0543,-1.1804 -0.1524,-0.154 -0.4435,-0.4512 -0.7318,-0.7456 -0.5197,-0.5302 -1.0185,-1.0395 -1.4799,-1.4863l-0.0041 -0.004c-0.3933,-0.3808 -0.7593,-0.7159 -1.0872,-0.9799 -0.222,-0.1787 -0.4523,-0.2865 -0.6796,-0.3269 -0.2281,-0.0404 -0.4554,-0.0133 -0.6695,0.078 -0.1192,0.0506 -0.257,-0.0049 -0.3075,-0.1239 -0.0507,-0.1191 0.0048,-0.257 0.1239,-0.3076 0.1979,-0.0843 0.4035,-0.1297 0.6122,-0.1343 -0.6792,-0.4467 -1.3378,-0.9008 -1.9729,-1.3651 -1.3106,-0.9581 -2.545,-1.9439 -3.7161,-2.9525 -1.0578,-0.9111 -2.0633,-1.8404 -3.0258,-2.7842 -0.5827,0.3975 -1.1047,0.8354 -1.5201,1.3437 -0.4444,0.5438 -0.7662,1.1696 -0.9073,1.9156 -0.0238,0.1273 -0.1463,0.211 -0.2736,0.1872 -0.1272,-0.0238 -0.211,-0.1463 -0.1873,-0.2735 0.1573,-0.8313 0.5135,-1.5256 1.0047,-2.1267 0.4269,-0.5222 0.9566,-0.9732 1.5465,-1.3823 -0.0655,-0.0732 -0.1297,-0.1463 -0.1922,-0.2194 -0.0057,-0.0059 -0.0109,-0.0121 -0.0159,-0.0186 -0.5636,-0.6607 -1.0082,-1.3148 -1.3337,-1.9625 -0.7761,0.7339 -1.3362,1.4528 -1.7068,2.1596 -0.4015,0.7655 -0.5822,1.519 -0.5766,2.2644 0.0006,0.0711 0.0035,0.141 0.0082,0.2099l0.0005 0.0057 0.0006 0.009c0.0929,1.2803 0.8882,2.2149 1.7904,3.2748 0.2411,0.2832 0.4895,0.5748 0.7154,0.8589 0.3151,0.396 0.6166,0.8277 0.9238,1.2676 0.5585,0.7994 1.1368,1.6274 1.8824,2.3442 0.0088,0.0084 0.0169,0.0174 0.0241,0.0269 0.6019,0.748 1.2184,1.4648 1.8481,2.1512 0.1927,-0.8038 0.4881,-1.4569 0.867,-1.9875 0.453,-0.6333 1.0197,-1.0909 1.6706,-1.4215 0.1153,-0.0589 0.257,-0.0124 0.3156,0.1031 0.0589,0.1155 0.0127,0.2572 -0.1024,0.3155 -0.5868,0.2982 -1.0976,0.709 -1.5018,1.275 -0.3922,0.5487 -0.6875,1.2467 -0.8607,2.1329 0.736,0.7808 1.4905,1.522 2.2627,2.2257 0.5074,0.4621 1.0707,0.8411 1.6319,1.2183 0.0102,0.0058 0.0201,0.0124 0.0294,0.0197 0.3659,0.2461 0.7308,0.4921 1.0821,0.7621 0.3786,0.291 0.7267,0.5941 1.0739,0.8961 0.5255,0.4572 1.0492,0.9128 1.6135,1.2763 0.7286,0.3866 1.365,0.6255 1.9091,0.7162 0.5177,0.0864 0.946,0.0365 1.2842,-0.1496 0.1431,-0.0787 0.3064,-0.1862 0.4767,-0.3204 0.3348,-0.264 0.691,-0.6279 0.9648,-1.0754z"/> <path id="_106131784" class="fil2" d="M58.3868 160.905c-0.1287,-0.0116 -0.2238,-0.1256 -0.2121,-0.2543 0.0116,-0.1287 0.1255,-0.2237 0.2543,-0.2121 0.9493,0.0879 1.8651,0.35 2.7475,0.7861 0.5499,0.2719 1.0868,0.6112 1.6107,1.0181l0.8186 -1.9192c-0.4201,-0.7292 -0.7942,-1.4737 -1.1598,-2.2017 -0.5097,-1.0147 -1.0027,-1.9964 -1.6058,-2.8896 -1.0431,0.5848 -2.045,1.203 -3.0107,1.8392 -1.0193,0.6716 -2.0068,1.3695 -2.9643,2.0725 -1.7413,1.4677 -2.6695,2.9793 -2.7843,4.5343 -0.0914,1.2364 0.3308,2.5129 1.2659,3.8293 -0.0939,-0.5613 -0.14,-1.1002 -0.1409,-1.6177 -0.0014,-0.8196 0.1111,-1.5833 0.327,-2.2961 0.0375,-0.1237 0.1682,-0.1936 0.2919,-0.1561 0.1238,0.0376 0.1937,0.1683 0.1562,0.2919 -0.2027,0.669 -0.3084,1.3875 -0.307,2.1603 0.0013,0.7591 0.107,1.5737 0.3266,2.4488 0.0584,0.0678 0.1181,0.1357 0.1791,0.2037 1.0445,1.0367 2.1395,2.0561 3.2975,3.0535 1.1598,0.9989 2.3842,1.9766 3.6866,2.9288 1.1469,0.8385 2.3732,1.6445 3.659,2.4331 0.1697,0.1041 0.3403,0.2079 0.5118,0.3113l0.0091 0.0054c1.0131,0.6107 2.0585,1.2107 3.1281,1.8083 -0.3543,-0.2809 -0.7151,-0.5751 -1.0768,-0.8712 -0.0073,-0.006 -0.0142,-0.0123 -0.0206,-0.0189 -0.3674,-0.3425 -0.6041,-0.6721 -0.7098,-0.9882 -0.0728,-0.2173 -0.085,-0.4272 -0.0369,-0.6293 0.0474,-0.1993 0.1527,-0.3868 0.3155,-0.5624 0.3133,-0.3379 0.8513,-0.6344 1.6136,-0.8895 0.3656,-0.1221 0.6574,-0.1665 0.9546,-0.1524 0.2913,0.0137 0.5762,0.0832 0.9371,0.1896 0.5123,0.151 0.9692,0.3539 1.3572,0.621 0.3951,0.272 0.7174,0.6096 0.9526,1.0253 0.0128,0.0226 0.0214,0.0464 0.0261,0.0707l0.0005 -0.0001c0.1266,0.6403 0.1487,1.3319 -0.0006,2.0146 -0.1289,0.5891 -0.385,1.1708 -0.811,1.7068 -0.0802,0.1397 -0.1689,0.2249 -0.267,0.2696 0.4478,0.0681 0.8575,0.0212 1.2316,-0.133 0.4207,-0.1734 0.9197,-0.4275 1.3188,-0.8178 0.3874,-0.3787 0.6837,-0.8918 0.7215,-1.5952l0.0002 0c0.0006,-0.0113 0.002,-0.0226 0.0043,-0.0339 0.1797,-0.8948 0.0375,-1.6924 -0.3267,-2.423 -0.3719,-0.746 -0.9747,-1.4264 -1.7045,-2.0707 -0.5236,-0.4622 -1.0335,-0.9592 -1.5519,-1.4644 -1.6004,-1.5595 -3.2829,-3.199 -5.4511,-3.9054 -0.1232,-0.0401 -0.1905,-0.1724 -0.1505,-0.2956 0.04,-0.1232 0.1723,-0.1906 0.2955,-0.1506 0.3368,0.1097 0.6613,0.2401 0.9754,0.3878 -0.3189,-0.8548 -0.8426,-1.7062 -1.4368,-2.4943 -0.724,-0.9599 -1.5509,-1.8241 -2.2444,-2.4895 -0.7769,-0.7453 -1.5833,-1.3245 -2.4187,-1.7376 -0.8316,-0.4111 -1.6925,-0.6578 -2.5822,-0.7402z"/> <path id="_106132432" class="fil2" d="M68.5135 148.818l0.901 -2.1122c-0.1948,-0.0748 -0.2389,-0.0987 -0.3369,-0.1524 -0.0776,-0.0425 -0.1942,-0.1065 -0.4874,-0.2454 -2.0523,-0.9723 -3.9772,-2.1344 -5.8979,-3.2938 -1.6191,-0.9775 -3.2355,-1.9534 -4.9085,-2.8042 -0.2169,0.6985 -0.3156,1.419 -0.414,2.1397 -0.2304,1.6861 -0.4609,3.3725 -2.127,4.8761 -0.0964,0.0867 -0.2448,0.079 -0.3314,-0.0174 -0.0867,-0.0963 -0.0789,-0.2447 0.0174,-0.3314 1.539,-1.389 1.7579,-2.9894 1.9766,-4.5897 0.1049,-0.7682 0.21,-1.5364 0.4532,-2.2905l-0.0314 -0.0157c-1.3231,-0.6501 -2.7751,-1.2536 -4.2115,-1.8507 -0.9653,-0.4011 -1.9237,-0.7995 -2.8517,-1.2167 -0.5509,-0.2477 -1.0915,-0.4995 -1.6267,-0.7526 -0.2214,0.9482 -0.7312,1.6073 -1.2402,2.2655 -0.6677,0.8635 -1.3345,1.7262 -1.2407,3.268 0.0076,0.1292 -0.091,0.2402 -0.2203,0.2478 -0.1293,0.0076 -0.2403,-0.091 -0.2478,-0.2203 -0.1044,-1.7162 0.6162,-2.6484 1.338,-3.5819 0.4948,-0.6401 0.9903,-1.2809 1.1767,-2.1855 -0.2748,-0.1309 -0.5487,-0.262 -0.8216,-0.3928 -1.4982,-0.7173 -2.9777,-1.426 -4.5925,-2.0797l0.0002 -0.0006c-2.1137,-0.8416 -3.6486,-1.0203 -4.7593,-0.8553 -1.5876,0.2358 -2.2916,1.1846 -2.5778,1.8644 -0.2821,0.6699 -0.3512,1.8524 0.5905,3.1446 0.6712,0.9207 1.8507,1.8922 3.8185,2.7745 0.0103,0.004 0.0203,0.0086 0.0301,0.0141l3.6088 2.0237c0.1651,-0.3248 0.3047,-0.684 0.4445,-1.0428 0.3601,-0.9251 0.7203,-1.8504 1.5504,-2.3605 0.1105,-0.0679 0.2552,-0.0333 0.3231,0.0771 0.068,0.1106 0.0334,0.2553 -0.077,0.3232 -0.6977,0.4286 -1.0287,1.2789 -1.3596,2.1291 -0.1463,0.3759 -0.2925,0.7521 -0.4728,1.103l7.3615 4.128c0.2828,-0.0759 0.5501,-0.2035 0.8036,-0.3764 0.2848,-0.1943 0.5531,-0.4466 0.8068,-0.7488 0.3041,-0.3625 0.4995,-0.8327 0.7168,-1.3557 0.2524,-0.6078 0.5331,-1.2835 1.0513,-1.9798 0.0769,-0.104 0.2237,-0.1257 0.3277,-0.0486 0.1039,0.0769 0.1257,0.2237 0.0487,0.3277 -0.4827,0.6486 -0.7522,1.2972 -0.9945,1.8807 -0.2318,0.558 -0.4403,1.0599 -0.7901,1.4767 -0.2808,0.3346 -0.5807,0.6158 -0.9022,0.8351 -0.1694,0.1157 -0.3448,0.2141 -0.5265,0.2939 1.5912,0.901 3.1101,1.8893 4.5337,2.9932 1.4481,1.1228 2.8001,2.3664 4.0315,3.7603 0.2609,0.2954 0.5004,0.6036 0.724,0.9221l0.0001 0.0002 0.0034 0.0047 0.0017 0.0024 0.0017 0.0025c0.6746,0.9629 1.2063,2.0215 1.757,3.1179 0.3069,0.6113 0.6202,1.2345 0.973,1.8674l1.0089 -2.3655c-1.8195,-1.7987 -2.2313,-3.7543 -2.0483,-4.7866 0.0245,-0.1381 0.0363,-0.3012 0.0492,-0.4782 0.0698,-0.959 0.1664,-2.2847 2.1227,-3.0112 0.8228,-0.3057 1.9415,-0.3811 3.5433,-0.3207z"/> <path id="_106132240" class="fil2" d="M75.5252 149.832l-0.0323 -0.0028 0 0 -0.032 -0.0027 -0.0002 0 -0.0318 -0.0028 -0.0002 0 -0.0317 -0.0027 -0.0003 0 -0.0312 -0.0027 -0.0005 0 -0.0312 -0.0027 -0.0004 0 -0.0309 -0.0027 -0.0006 0 -0.2158 -0.0185 -0.0009 0 -0.0295 -0.0026 -0.0009 -0.0001 -0.0295 -0.0025 -0.0009 -0.0001 -0.0291 -0.0026 -0.0011 -0.0001 -0.029 -0.0025 -0.0011 0 -0.0288 -0.0025 -0.0011 -0.0002 -0.0288 -0.0024 -0.0012 0 -0.0284 -0.0025 -0.0011 -0.0001 -0.0285 -0.0025 -0.0012 -0.0001 -0.0283 -0.0025 -0.0013 -0.0001 -0.0281 -0.0023 -0.0013 -0.0001 -0.028 -0.0025 -0.0013 -0.0001 -0.0278 -0.0024 -0.0014 -0.0002 -0.0277 -0.0023 -0.0014 -0.0002 -0.0275 -0.0023 -0.0015 -0.0001 -0.0274 -0.0025 -0.0014 -0.0001 -0.0274 -0.0022 -0.0014 -0.0002 -0.0272 -0.0024 -0.0015 -0.0001 -0.0271 -0.0023 -0.0015 -0.0001 -0.0269 -0.0024 -0.0015 -0.0002 -0.0268 -0.0022 -0.0017 -0.0002 -0.0266 -0.0024 -0.0282 -0.0023 -0.0017 -0.0003 -0.0264 -0.0022 -0.0017 -0.0002 -0.0263 -0.0022 -0.0018 -0.0002 -0.0261 -0.0022 -0.0018 -0.0002 -0.0262 -0.0023 -0.0017 -0.0001 -0.026 -0.0022 -0.0017 -0.0002 -0.026 -0.0023 -0.0017 -0.0002 -0.0257 -0.0021 -0.0019 -0.0002 -0.0258 -0.0023 -0.0018 -0.0001 -0.0255 -0.0022 -0.0018 -0.0003 -0.0256 -0.0022 -0.0019 -0.0001 -0.0254 -0.0022 -0.0019 -0.0003 -0.0253 -0.002 -0.0019 -0.0002 -0.0252 -0.0022 -0.0019 -0.0001 -0.0252 -0.0023 -0.0019 -0.0002 -0.0251 -0.0022 -0.0019 -0.0002 -0.0251 -0.0021 -0.0019 -0.0001 -0.0249 -0.0022 -0.002 -0.0003 -0.025 -0.0019 -0.0018 -0.0003 -0.0248 -0.0022 -0.002 -0.0001 -0.0247 -0.0021 -0.002 -0.0003 -0.0247 -0.0022 -0.0019 -0.0001 -0.0247 -0.0021 -0.0019 -0.0001 -0.0246 -0.0023 -0.0019 -0.0001 -0.0246 -0.0021 -0.0019 -0.0002 -0.0245 -0.0022 -0.0019 -0.0002 -0.0245 -0.002 -0.0019 -0.0002 -0.0244 -0.0021 -0.0019 -0.0001 -0.0244 -0.0022 -0.002 -0.0001 -0.097 -0.0085 -0.0965 -0.0085 -0.0206 -0.0018 -0.0751 -0.0065 -0.0953 -0.0082 -0.0427 -0.0038 -0.2099 -0.0182 -0.0293 -0.0026 -0.0929 -0.0081 -0.4892 -0.0422 -0.0546 -0.0047 -0.0885 -0.0075 -0.0546 -0.0047 -0.0334 -0.0028 -0.3455 -0.0293 -0.0077 -0.0006 -0.3286 -0.0275 -0.0462 -0.0037c-3.2598,-0.2681 -5.1685,-0.3419 -6.341,0.0935 -1.6734,0.6214 -1.7573,1.7726 -1.8178,2.6055 -0.014,0.1919 -0.0269,0.3688 -0.0547,0.5258 -0.1654,0.9333 0.2302,2.7263 1.9488,4.4057 0.0212,0.0208 0.0426,0.0416 0.0643,0.0623 0.0044,0.0037 0.0089,0.0074 0.0132,0.0115l0.069 0.0662c1.1918,1.1114 2.9738,2.1537 5.5676,2.8438 0.508,0.1352 0.9704,0.3367 1.4457,0.5444l0.0089 0.0039 0.0104 0.0045 0.0031 0.0012 0.012 0.0056c1.371,0.5989 2.8681,1.2382 5.8381,0.2894 0.1232,-0.0391 0.2547,0.0291 0.2938,0.1523 0.039,0.1232 -0.0292,0.2549 -0.1524,0.2938 -0.4933,0.1576 -0.9482,0.2736 -1.3701,0.3549 0.2164,0.4176 0.6025,0.8227 1.1583,1.2148 0.6938,0.4896 1.6442,0.9537 2.8509,1.392 0.1217,0.0441 0.1846,0.1786 0.1406,0.3003 -0.0441,0.1216 -0.1786,0.1845 -0.3003,0.1404 -1.2472,-0.4531 -2.2344,-0.9362 -2.9611,-1.4489 -0.6749,-0.4763 -1.1316,-0.9826 -1.3697,-1.5185 -1.8527,0.257 -3.0346,-0.1867 -4.1087,-0.6512l-3.5367 8.2914c1.0223,0.7552 1.9438,1.6528 2.8398,2.5261 0.518,0.5048 1.0276,1.0015 1.5352,1.4495 0.773,0.6826 1.4141,1.4081 1.8148,2.2122 0.4059,0.8144 0.5656,1.705 0.3689,2.7056 -0.0487,0.8329 -0.4014,1.4416 -0.8618,1.8917 -0.4514,0.4414 -1.0038,0.7241 -1.4676,0.9152 -0.6214,0.256 -1.3126,0.2707 -2.0806,0.0182 -0.7372,-0.2424 -1.547,-0.7334 -2.4362,-1.4968 -1.1214,-0.623 -2.2156,-1.2466 -3.2713,-1.8782l-0.0137 0.0321c0.4321,0.4223 0.8933,0.8924 1.3711,1.3802 0.1918,0.1957 0.3897,0.3977 0.7318,0.7436 0.333,0.3368 0.6917,0.7356 1.0837,1.2155 0.3868,0.4734 0.8016,1.021 1.2506,1.6598 0.221,0.2807 0.4036,0.5562 0.5518,0.8255 0.6377,1.1585 0.6341,2.1901 0.3353,3.0403 -0.0615,0.1751 -0.1357,0.3419 -0.2193,0.5004 0.7722,0.4099 1.5718,0.8014 2.3934,1.1778 0.898,0.4114 1.8297,0.8081 2.7862,1.1936 0.791,0.3188 1.7179,0.6776 2.6828,0.9735 0.9579,0.2937 1.9553,0.5258 2.896,0.5951 0.6194,0.0457 1.2103,-0.0138 1.7828,-0.0714 0.8994,-0.0905 1.7561,-0.1766 2.6492,0.1272 1.2976,0.4414 2.5712,1.1629 3.7268,1.962 1.1511,0.7961 2.1837,1.6678 3.0048,2.4153 0.0212,0.0194 0.038,0.0415 0.0504,0.0657 2.0632,3.6229 5.0921,4.8726 8.0441,4.48 1.573,-0.2092 3.1277,-0.8828 4.5071,-1.911 1.3833,-1.0311 2.5886,-2.4182 3.4581,-4.0511 2.1202,-3.9815 2.2401,-9.427 -1.9235,-14.7458l-0.0005 0.0004c-0.7929,-1.0059 -2.1026,-1.672 -3.4115,-2.3375 -0.7132,-0.3627 -1.4263,-0.7255 -2.0768,-1.1542 -1.5199,-1.0018 -3.0178,-2.0165 -4.4908,-3.0453 -1.2871,-0.8992 -2.5537,-1.808 -3.7976,-2.727 0.0234,0.072 0.0478,0.144 0.0731,0.2158 0.2489,0.7049 0.5929,1.3981 1.0675,2.0687 0.0745,0.1054 0.0494,0.2514 -0.0559,0.3259 -0.1055,0.0745 -0.2515,0.0494 -0.326,-0.056 -0.5032,-0.7111 -0.8666,-1.4421 -1.128,-2.1825 -0.2605,-0.7381 -0.4207,-1.4883 -0.5177,-2.2394 -0.0219,-0.1692 -0.0402,-0.3385 -0.0551,-0.5077 -0.269,0.4282 -0.6075,0.8192 -1.0085,1.1767 -0.6287,0.5604 -1.4113,1.039 -2.3187,1.451 -0.1181,0.0532 -0.2571,0.0006 -0.3104,-0.1175 -0.0531,-0.1182 -0.0006,-0.2571 0.1176,-0.3104 0.8645,-0.3923 1.6071,-0.8457 2.1994,-1.3737 0.5709,-0.509 1.002,-1.0874 1.2672,-1.7478 -0.0074,-0.2468 -0.01,-0.4932 -0.0094,-0.7385 -0.2264,0.3072 -0.4736,0.5947 -0.7421,0.8625 -0.4576,0.4563 -0.9773,0.856 -1.559,1.1987 -0.1115,0.0654 -0.255,0.028 -0.3205,-0.0835 -0.0653,-0.1115 -0.0279,-0.255 0.0836,-0.3205 0.5462,-0.3217 1.0346,-0.6975 1.4653,-1.1269 0.4161,-0.4151 0.7779,-0.88 1.0854,-1.395 0.0049,-0.2016 0.0107,-0.4021 0.0165,-0.6012 0.0497,-1.7232 0.0966,-3.3453 -0.4781,-4.6478 -0.2998,-0.6793 -0.6104,-1.2893 -0.9863,-1.7781 -0.3626,-0.4716 -0.789,-0.8342 -1.3314,-1.043l-0.0088 -0.0031c-0.6032,-0.2156 -1.1495,-0.477 -1.6513,-0.7706 -0.4992,-0.292 -0.9509,-0.6147 -1.3695,-0.9552 -0.4101,-0.3337 -0.8081,-0.6718 -1.1939,-1.0107 0.1015,0.57 0.1165,1.1311 0.0447,1.6835 -0.1028,0.7916 -0.3824,1.5618 -0.8385,2.3105 -0.0674,0.1105 -0.2118,0.1454 -0.3222,0.078 -0.1106,-0.0673 -0.1455,-0.2118 -0.0781,-0.3222 0.4223,-0.6929 0.6804,-1.4014 0.7744,-2.1251 0.0915,-0.7049 0.0284,-1.4279 -0.1892,-2.1688 -0.4899,-0.4443 -0.9636,-0.8903 -1.418,-1.3256 0.2112,0.7904 0.2733,1.5508 0.1754,2.2791 -0.1371,1.0195 -0.5866,1.9699 -1.3775,2.8443 -0.0867,0.0958 -0.2347,0.1032 -0.3305,0.0165 -0.0957,-0.0866 -0.1031,-0.2347 -0.0165,-0.3304 0.7245,-0.801 1.1355,-1.6672 1.26,-2.5929 0.1236,-0.9183 -0.0338,-1.9018 -0.4459,-2.9437 -0.4801,-0.4882 -0.9445,-0.9439 -1.5823,-1.224 -0.1864,-0.0819 -0.3745,-0.1588 -0.5644,-0.2301 0.0216,0.1432 0.0505,0.2889 0.0792,0.4344 0.1154,0.5843 0.2307,1.1688 -0.047,1.7969 -0.0522,0.1186 -0.1908,0.1725 -0.3094,0.1203 -0.1185,-0.0522 -0.1725,-0.1908 -0.1202,-0.3094 0.218,-0.4932 0.1169,-1.0056 0.0159,-1.5178 -0.0452,-0.2288 -0.0905,-0.4577 -0.1114,-0.6959 -0.4068,-0.1299 -0.8215,-0.234 -1.2456,-0.3086l-0.0772 -0.0132c0.0248,0.4842 -0.0082,0.9312 -0.0403,1.3712 -0.0516,0.7028 -0.1018,1.387 0.1006,2.1395 0.0335,0.1252 -0.0409,0.2539 -0.1661,0.2874 -0.1252,0.0334 -0.2539,-0.041 -0.2874,-0.1662 -0.2228,-0.8284 -0.1697,-1.5513 -0.1153,-2.2938 0.0332,-0.4541 0.0672,-0.9159 0.0351,-1.4042 -0.6204,-0.07 -1.2602,-0.0758 -1.9223,-0.007 -0.0195,0.0036 -0.0395,0.0044 -0.06,0.0027z"/> <path id="_106132144" class="fil3" d="M131.725 20.9509c-1.2519,0.2834 -2.6247,0.184 -3.9231,-0.3699 -1.2984,-0.5538 -2.3202,-1.4758 -2.9823,-2.5758l-54.8736 128.649c-0.0027,0.0071 -0.0056,0.0142 -0.0089,0.021l-0.9234 2.165c0.6737,0.0344 1.4263,0.0886 2.2693,0.1568l0.0142 0.001 0.0602 0.0049 0.0748 0.0061 0.3802 0.0315 0.0007 0 0.0503 0.0042 0.0274 0.0022 0.0782 0.0066 0.0784 0.0067 0.0105 0.0009 0.1482 0.0125 0.0494 0.0042 0.0305 0.0027 0.1615 0.0137 0.0086 0.0007 0.0729 0.0062 0.082 0.0072 0.0487 0.0041 0.0338 0.0029 0.0829 0.0072 0.1675 0.0145 0.0843 0.0074 0.048 0.0041 0.0371 0.0032 0.3919 0.0342 0.0407 0.0035 0.088 0.0077 0.0886 0.0078 0.0019 0.0001 0.026 0.0022 0.0019 0.0002 0.026 0.0023 0.0018 0.0001 0.0262 0.0022 0.0017 0.0003 0.0262 0.0022 0.0017 0.0002 0.0281 0.0024 0.0264 0.0023 0.0015 0.0001 0.0266 0.0023 0.0016 0.0001 0.0266 0.0024 0.0014 0.0002 0.0269 0.0022 0.0013 0.0001 0.0268 0.0025 0.0014 0 0.027 0.0023 0.0012 0.0001 0.027 0.0025 0.0013 0.0001 0.0271 0.0022 0.0012 0.0002 0.0272 0.0024 0.0012 0.0001 0.0272 0.0023 0.001 0.0001 0.0274 0.0025 0.001 0.0001 0.0275 0.0022 0.0009 0.0001 0.0276 0.0025 0.0009 0.0001 0.0276 0.0022 0.0009 0.0001 0.0276 0.0025 0.0008 0.0001 0.0278 0.0023 0.0009 0.0001 0.0277 0.0024 0.0008 0.0002 0.0278 0.0023 0.0008 0.0001 0.0277 0.0025 0.0007 0.0001 0.028 0.0022 0.0006 0.0001 0.0281 0.0025 0.0006 0.0001 0.028 0.0024 0.0006 0.0001 0.028 0.0025 0.0006 0 0.0282 0.0023 0.0004 0.0001 0.0282 0.0025 0.0005 0 0.0284 0.0026 0.0002 0 0.0284 0.0024 0.0002 0.0001 0.0285 0.0024 0.0004 0 0.0284 0.0025 0.0001 0.0001 0.0286 0.0023 0.0003 0 0.0284 0.0025 0.0002 0.0001 0.0285 0.0024 0.0002 0 0.0286 0.0024 0.0001 0.0001 0.0286 0.0025 0.0001 0 0.0285 0.0025 0.0002 0.0001 0.0286 0.0023 0.0001 0 0.0286 0.0025 0 0.0001 0.1432 0.0123 0.0001 0 0.0285 0.0025 0.0001 0 0.0285 0.0025 0.0001 0 0.0286 0.0024 0.0001 0 0.0284 0.0024 0.0002 0 0.0283 0.0025 0.0002 0 0.0283 0.0024 0.0002 0 0.0283 0.0025 0.0002 0 0.0283 0.0024 0.0003 0 0.0281 0.0025 0.0002 0 0.0282 0.0024 0.0002 0 0.0282 0.0024 0.0002 0 0.0281 0.0025 0.0003 0 0.0281 0.0024 0.0002 0 0.0281 0.0024 0.0003 0 0.0279 0.0024 0.0003 0 0.0279 0.0024 0.0002 0 0.0279 0.0024c0.4867,-0.0503 0.9616,-0.0625 1.4254,-0.0402l26.5971 -62.3561 -0.0005 -0.0002 28.0297 -65.7149 0.0006 0.0002 0.1281 -0.3005z"/> <path id="_106131928" class="fil3" d="M65.211 157.756l-1.1219 2.6302c-0.0034,0.0094 -0.0071,0.0184 -0.0117,0.0273l-0.9115 2.1374 0.0036 0.0032c0.1827,0.1554 0.3637,0.3192 0.5431,0.4913 0.7086,0.6798 1.5539,1.563 2.2939,2.5445 0.7259,0.9626 1.3526,2.0218 1.6579,3.0837 0.2853,0.1597 0.5619,0.3328 0.8313,0.5169l3.4976 -8.2004c-0.3926,-0.1701 -0.7799,-0.3293 -1.1889,-0.4381 -2.5555,-0.6799 -4.3551,-1.6979 -5.5934,-2.796z"/> <path id="_106130584" class="fil0" d="M61.1096 191.514c-0.3537,0.6079 -0.8307,0.9964 -1.4883,1.0623l0 -0.0003c-0.0483,0.0048 -0.0985,-0.0051 -0.1433,-0.0319 -0.3392,-0.2027 -0.6538,-0.5607 -0.9705,-0.9212 -0.1782,-0.2027 -0.3572,-0.4065 -0.5371,-0.5764l0 0c-0.004,-0.0039 -0.0081,-0.0078 -0.012,-0.0119 -0.1152,-0.1248 -0.2024,-0.2186 -0.2862,-0.3087 -0.8554,-0.9202 -1.3921,-1.4974 -1.4393,-2.1623 -0.026,-0.3686 0.0876,-0.701 0.3472,-0.9955 0.2397,-0.2717 0.6046,-0.5061 1.1001,-0.7013 0.024,-0.0101 0.0498,-0.0162 0.0772,-0.0179 0.7388,-0.0435 1.4466,0.1284 2.1234,0.5158 0.6643,0.3804 1.2971,0.9684 1.8981,1.764l-0.0003 0.0001c0.0382,0.0506 0.0557,0.1164 0.0433,0.1835 -0.1613,0.8689 -0.3815,1.6335 -0.7123,2.2017z"/> <path id="_106132504" class="fil4" d="M59.6529 192.099c0.4487,-0.0719 0.7879,-0.3685 1.051,-0.8206 0.2886,-0.4959 0.488,-1.173 0.638,-1.9494 -0.5429,-0.7024 -1.1077,-1.2216 -1.6943,-1.5574 -0.585,-0.3348 -1.1936,-0.4874 -1.8254,-0.4572 -0.4103,0.1648 -0.706,0.353 -0.8915,0.5633 -0.1714,0.1944 -0.2466,0.4123 -0.2296,0.6521 0.0354,0.5002 0.5285,1.0307 1.3145,1.8759 0.0983,0.1059 0.2011,0.2163 0.2839,0.3059 0.1897,0.1801 0.3756,0.3917 0.5606,0.6023 0.2687,0.3059 0.5361,0.6098 0.7928,0.7851z"/> <path id="_106133392" class="fil0" d="M64.6892 182.286c0.7463,0.1714 1.4137,0.4333 2.0142,0.7713 0.6005,0.3381 1.1347,0.7526 1.6146,1.229 0.0486,0.0483 0.0715,0.1126 0.0688,0.1762l0 0c-0.0426,0.9383 -0.1816,1.7789 -0.475,2.4627 -0.3043,0.7097 -0.7717,1.2513 -1.4631,1.5615 -0.0843,0.0377 -0.1791,0.0213 -0.2456,-0.034l-3.5652 -2.7914c-0.0167,-0.0131 -0.031,-0.028 -0.0431,-0.0441l-0.0001 0c-0.3958,-0.526 -0.5822,-1.0408 -0.5818,-1.504 0.0003,-0.2611 0.0591,-0.5047 0.1724,-0.7241 0.1124,-0.2177 0.2782,-0.411 0.4935,-0.5729 0.4479,-0.337 1.1136,-0.5366 1.958,-0.5357 0.0179,0 0.0355,0.002 0.0523,0.0057l0.0001 -0.0002z"/> <path id="_106130512" class="fil4" d="M66.4739 183.467c-0.557,-0.3135 -1.1751,-0.5573 -1.8654,-0.7182 -0.7247,0.0035 -1.2839,0.1676 -1.6488,0.4421 -0.1571,0.1182 -0.2773,0.2575 -0.3576,0.4132 -0.0796,0.154 -0.1209,0.3254 -0.121,0.5093 -0.0003,0.3573 0.1504,0.7663 0.47,1.1985l3.4312 2.6866c0.5057,-0.2653 0.8587,-0.6986 1.0981,-1.2568 0.2589,-0.604 0.3877,-1.3534 0.4329,-2.1955 -0.4303,-0.4159 -0.9068,-0.7795 -1.4394,-1.0792z"/> <path id="_106133104" class="fil0" d="M64.7485 150.359c0.1994,-0.8527 0.8542,-1.1713 2.1225,-0.7699 1.6241,0.1481 3.048,0.4222 4.0171,0.9819 1.0232,0.5913 1.5471,1.4815 1.2927,2.8374 0.0646,1.4074 -0.4156,2.266 -1.3067,2.7103 -0.859,0.4284 -2.0939,0.4447 -3.581,0.1845 -0.1372,-0.0241 -0.2911,-0.0536 -0.4611,-0.0885 -0.1598,-0.0327 -0.3157,-0.0666 -0.4676,-0.1016 -0.0747,-0.0143 -0.141,-0.0649 -0.1724,-0.1404 -0.1456,-0.3487 -0.3263,-0.7889 -0.4982,-1.2279 -0.1294,-0.3301 -0.2548,-0.6621 -0.3577,-0.9574 -0.5175,-1.4856 -0.7624,-2.6806 -0.5876,-3.4284z"/> <path id="_106133536" class="fil4" d="M66.7479 150.041c-0.9416,-0.302 -1.4154,-0.1187 -1.5422,0.4239 -0.1529,0.6541 0.0835,1.7631 0.5729,3.1677 0.0976,0.2802 0.2218,0.6084 0.352,0.9411 0.1522,0.3881 0.3119,0.7797 0.4479,1.1068 0.1209,0.0272 0.2369,0.0522 0.3471,0.0747 0.1383,0.0283 0.2879,0.0567 0.4483,0.0847 1.3919,0.2437 2.5303,0.2372 3.2909,-0.1422 0.7224,-0.3602 1.1082,-1.0854 1.0466,-2.2952 -0.0009,-0.0191 0.0002,-0.0379 0.0037,-0.056l-0.0001 0c0.2207,-1.136 -0.2116,-1.8789 -1.0619,-2.3702 -0.9062,-0.5236 -2.2768,-0.7818 -3.8503,-0.9238 -0.0191,-0.0017 -0.0375,-0.0055 -0.0549,-0.0115z"/> <path id="_106130872" class="fil0" d="M55.553 142.14c0.037,-0.1243 0.1678,-0.1949 0.2919,-0.158 0.1242,0.037 0.1949,0.1678 0.1579,0.292 -0.1572,0.5264 -0.3501,1.0338 -0.5628,1.5306 0.0445,-0.0554 0.0881,-0.1113 0.1309,-0.1676 0.328,-0.4312 0.609,-0.8955 0.8209,-1.4083 0.0492,-0.1197 0.1861,-0.1768 0.3057,-0.1276 0.1196,0.0492 0.1768,0.186 0.1276,0.3057 -0.2281,0.5518 -0.5297,1.0506 -0.8814,1.513 -0.3478,0.4571 -0.7413,0.8756 -1.1595,1.2736 -0.0684,0.0711 -0.1774,0.0937 -0.2709,0.0485 -0.1166,-0.0562 -0.1655,-0.1964 -0.1092,-0.3131 0.4384,-0.9038 0.8585,-1.8163 1.1489,-2.7888z"/> <path id="_106131136" class="fil0" d="M93.3879 192.802c0.0979,0.0846 0.1085,0.2326 0.0239,0.3305 -0.0847,0.0978 -0.2327,0.1085 -0.3305,0.0239 -1.515,-1.312 -3.0387,-2.407 -4.582,-3.0059 -1.5186,-0.5892 -3.0622,-0.6975 -4.6446,-0.0544 -0.1201,0.0487 -0.257,-0.0093 -0.3057,-0.1294 -0.0486,-0.1202 0.0093,-0.2571 0.1295,-0.3057 1.7052,-0.6931 3.3629,-0.5786 4.9898,0.0526 1.6022,0.6218 3.1688,1.7453 4.7196,3.0884z"/> <path id="_106133344" class="fil0" d="M82.0637 186.892c-0.1237,0.038 -0.2549,-0.0315 -0.2929,-0.1552 -0.038,-0.1237 0.0314,-0.2548 0.1552,-0.2928 2.5075,-0.7733 4.5185,-1.6458 6.0326,-2.6172 1.4927,-0.9576 2.4973,-2.0084 3.0135,-3.152 0.0532,-0.1181 0.1921,-0.1707 0.3103,-0.1175 0.1181,0.0532 0.1707,0.1922 0.1175,0.3103 -0.5543,1.2281 -1.617,2.3461 -3.1879,3.3539 -1.5495,0.9941 -3.599,1.8843 -6.1483,2.6705z"/> <path id="_106131808" class="fil0" d="M91.5162 182.844c-0.0745,0.1059 -0.2208,0.1314 -0.3268,0.0569 -0.1059,-0.0745 -0.1314,-0.2209 -0.0569,-0.3268 0.7145,-1.0107 1.3631,-2.0539 1.9519,-3.1269 0.5905,-1.076 1.1201,-2.1792 1.5955,-3.3072 0.0502,-0.1191 0.1875,-0.175 0.3066,-0.1248 0.1191,0.0502 0.1751,0.1875 0.1249,0.3066 -0.4839,1.1483 -1.0204,2.2663 -1.6158,3.3512 -0.597,1.088 -1.2547,2.1459 -1.9794,3.171z"/> <path id="_106133224" class="fil0" d="M74.2398 150.413c-0.037,-0.1242 0.0337,-0.255 0.1579,-0.292 0.1242,-0.037 0.2549,0.0337 0.2919,0.1579 0.3769,1.2651 0.6409,2.5414 0.7802,3.83 0.1392,1.287 0.1534,2.5863 0.0309,3.899 -0.0116,0.1287 -0.1255,0.2236 -0.2542,0.212 -0.1288,-0.0116 -0.2237,-0.1255 -0.2121,-0.2542 0.1193,-1.2793 0.1052,-2.5482 -0.0309,-3.8073 -0.136,-1.2577 -0.3944,-2.506 -0.7637,-3.7454z"/> <path id="_106132000" class="fil0" d="M75.9727 152.722c-0.0588,-0.115 -0.0131,-0.2561 0.1019,-0.3149 0.1151,-0.0588 0.2561,-0.0131 0.3149,0.1019 0.3265,0.6391 0.6262,1.2945 0.8829,1.9757 0.2583,0.6853 0.4746,1.3993 0.6332,2.1527 0.0264,0.1267 -0.055,0.2508 -0.1818,0.2772 -0.1267,0.0264 -0.2509,-0.055 -0.2772,-0.1817 -0.1532,-0.7276 -0.3627,-1.4187 -0.613,-2.0829 -0.2519,-0.6684 -0.5439,-1.3073 -0.8609,-1.928z"/> <path id="_106130632" class="fil0" d="M77.8926 182.998c-0.1227,-0.0416 -0.1885,-0.1748 -0.1469,-0.2975 0.0415,-0.1227 0.1748,-0.1884 0.2975,-0.1469 0.7941,0.2694 1.6125,0.4438 2.4526,0.5327 0.8424,0.0891 1.7094,0.0924 2.5979,0.0195 0.6193,-0.0509 1.2417,-0.2749 1.878,-0.5039 0.4121,-0.1482 0.8299,-0.2987 1.2663,-0.4105 0.4307,-0.1104 0.8635,-0.1499 1.3013,-0.1897 0.766,-0.0697 1.5488,-0.1409 2.2875,-0.6163 0.109,-0.0699 0.2541,-0.0383 0.324,0.0707 0.07,0.109 0.0383,0.2541 -0.0707,0.3241 -0.8336,0.5364 -1.6751,0.613 -2.4986,0.6879 -0.4197,0.0382 -0.8346,0.0759 -1.2279,0.1768 -0.4127,0.1058 -0.8211,0.2528 -1.2239,0.3977 -0.6682,0.2405 -1.3218,0.4757 -1.9992,0.5313 -0.9135,0.075 -1.8084,0.0712 -2.6824,-0.0213 -0.8762,-0.0927 -1.729,-0.2743 -2.5555,-0.5546z"/> <path id="_106130944" class="fil0" d="M93.1166 176.442c0.0669,-0.111 0.2112,-0.1468 0.3222,-0.0799 0.111,0.0669 0.1468,0.2112 0.0799,0.3222 -0.6103,1.0102 -1.2047,1.8856 -1.8775,2.6221 -0.0039,0.0042 -0.008,0.0082 -0.0121,0.0121 -0.6776,0.7392 -1.432,1.3353 -2.356,1.7818 -1.0051,0.4856 -2.3226,0.5059 -3.6129,0.5256 -0.3576,0.0055 -0.713,0.0109 -1.067,0.0271 -0.2543,0.0116 -0.5,0.0156 -0.7356,0.0193 -0.9045,0.0143 -1.6542,0.0263 -2.7031,0.5281 -0.1166,0.0557 -0.2563,0.0064 -0.3121,-0.1102 -0.0557,-0.1166 -0.0064,-0.2563 0.1102,-0.3121 1.1413,-0.546 1.9373,-0.5587 2.8977,-0.574 0.2259,-0.0035 0.4616,-0.0073 0.7227,-0.0192 0.3465,-0.0159 0.713,-0.0215 1.0816,-0.0272 1.2375,-0.0189 2.5012,-0.0383 3.4147,-0.4797 0.8671,-0.4189 1.5759,-0.9788 2.213,-1.6734 0.0037,-0.0048 0.0078,-0.0094 0.012,-0.014 0.6481,-0.7095 1.2261,-1.5619 1.8223,-2.5486z"/> <path id="_106132744" class="fil0" d="M80.5841 180.003c-0.1262,-0.0299 -0.2043,-0.1565 -0.1744,-0.2827 0.0299,-0.1262 0.1565,-0.2044 0.2827,-0.1745 2.9076,0.6936 5.464,0.8751 7.4582,0.2373 1.962,-0.6276 3.3896,-2.0635 4.0821,-4.6104 0.0339,-0.1252 0.163,-0.1992 0.2883,-0.1652 0.1252,0.0339 0.1991,0.163 0.1652,0.2882 -0.7393,2.7191 -2.2766,4.2562 -4.3942,4.9335 -2.0855,0.6671 -4.7239,0.4856 -7.7079,-0.2262z"/> <path id="_106131664" class="fil0" d="M92.5297 173.572c0.0613,-0.114 0.2036,-0.1568 0.3176,-0.0955 0.1141,0.0614 0.1569,0.2036 0.0955,0.3177 -1.4138,2.6168 -3.153,4.3409 -5.2332,5.1283 -2.0825,0.7881 -4.4922,0.6328 -7.2443,-0.5103 -0.1196,-0.0496 -0.1764,-0.1869 -0.1267,-0.3065 0.0497,-0.1197 0.187,-0.1764 0.3066,-0.1267 2.6369,1.0952 4.9315,1.2493 6.8991,0.5046 1.9698,-0.7455 3.6268,-2.3969 4.9854,-4.9116z"/> <path id="_106131424" class="fil0" d="M82.3403 168.288c-0.1237,-0.0385 -0.1927,-0.17 -0.1542,-0.2937 0.0385,-0.1238 0.17,-0.1928 0.2937,-0.1543 0.7211,0.2245 1.4433,0.2633 2.1663,0.1572 0.7315,-0.1075 1.4652,-0.363 2.2004,-0.7248 0.1161,-0.0573 0.2568,-0.0096 0.314,0.1065 0.0573,0.1161 0.0096,0.2567 -0.1065,0.314 -0.7782,0.383 -1.5581,0.6539 -2.3399,0.7687 -0.7903,0.1161 -1.5816,0.0731 -2.3738,-0.1736z"/> <path id="_106132264" class="fil0" d="M81.2727 169.722c-0.1206,-0.047 -0.1802,-0.1831 -0.1331,-0.3038 0.0471,-0.1206 0.1832,-0.1802 0.3038,-0.1331 0.9169,0.3584 1.8557,0.4693 2.8124,0.3718 0.965,-0.0983 1.9509,-0.4084 2.9534,-0.8905 0.1166,-0.0557 0.2564,-0.0063 0.3121,0.1102 0.0558,0.1166 0.0064,0.2564 -0.1102,0.3121 -1.0505,0.5051 -2.088,0.8305 -3.1094,0.9346 -1.0294,0.1048 -2.0403,-0.0149 -3.029,-0.4013z"/> <path id="_106133776" class="fil0" d="M61.9613 174.107c-0.0197,0.1277 -0.1394,0.2153 -0.2671,0.1955 -0.1278,-0.0197 -0.2153,-0.1394 -0.1956,-0.2671 0.1654,-1.0513 0.7116,-1.6525 1.2577,-2.2536 0.2556,-0.2814 0.5114,-0.5629 0.7142,-0.8817 0.0694,-0.109 0.2142,-0.141 0.3232,-0.0716 0.109,0.0695 0.141,0.2142 0.0715,0.3232 -0.2276,0.3577 -0.4948,0.6519 -0.7619,0.9459 -0.4994,0.5496 -0.9988,1.0993 -1.142,2.0094z"/> <path id="_106130320" class="fil0" d="M55.4205 167.496c-0.038,0.1237 -0.1691,0.1932 -0.2928,0.1552 -0.1237,-0.038 -0.1932,-0.1692 -0.1552,-0.2929 0.1483,-0.4809 0.4128,-0.8501 0.6693,-1.208 0.277,-0.3866 0.5438,-0.7591 0.595,-1.2127 0.0142,-0.1288 0.1302,-0.2217 0.2589,-0.2075 0.1287,0.0142 0.2217,0.1301 0.2075,0.2589 -0.0652,0.5775 -0.3666,0.9982 -0.6795,1.4348 -0.2356,0.3288 -0.4785,0.6679 -0.6032,1.0722z"/> <path id="_106131520" class="fil0" d="M56.9478 162.029c0.1069,-0.0724 0.2525,-0.0445 0.3249,0.0625 0.0725,0.1069 0.0446,0.2525 -0.0624,0.3249 -0.586,0.3988 -1.0594,0.9302 -1.4199,1.5939 -0.3645,0.6712 -0.6143,1.4798 -0.7492,2.4258 -0.0183,0.1282 -0.1371,0.2174 -0.2653,0.1992 -0.1282,-0.0182 -0.2174,-0.1371 -0.1992,-0.2653 0.1427,-1.0002 0.4102,-1.8615 0.8024,-2.5837 0.3962,-0.7295 0.9192,-1.3154 1.5687,-1.7573z"/> <path id="_106130224" class="fil0" d="M55.2575 161.972c0.077,-0.104 0.2238,-0.1257 0.3277,-0.0487 0.104,0.077 0.1257,0.2238 0.0487,0.3278 -0.3988,0.5359 -0.7167,1.0982 -0.9049,1.7021 -0.1863,0.5978 -0.246,1.2394 -0.1317,1.9411 0.0208,0.1277 -0.0659,0.2482 -0.1937,0.269 -0.1277,0.0207 -0.2482,-0.066 -0.2689,-0.1937 -0.127,-0.7791 -0.0606,-1.4918 0.1463,-2.1559 0.205,-0.6578 0.5477,-1.2655 0.9765,-1.8417z"/> <path id="_106130344" class="fil0" d="M80.2855 157.679c-0.0289,0.1262 -0.1547,0.2051 -0.2809,0.1762 -0.1262,-0.0288 -0.2051,-0.1546 -0.1763,-0.2808 0.0981,-0.4252 0.268,-0.7826 0.4377,-1.1399 0.3119,-0.6565 0.6237,-1.3131 0.3929,-2.3563 -0.0279,-0.1262 0.0519,-0.2512 0.1781,-0.279 0.1262,-0.0279 0.2511,0.0518 0.279,0.178 0.2659,1.2012 -0.08,1.9293 -0.4258,2.6574 -0.1591,0.3349 -0.3183,0.6699 -0.4047,1.0444z"/> <g> <polygon id="_106131304" class="fil5" points="131.844,21.868 261.545,77.1899 233.884,142.04 104.183,86.7181 "/> <polygon id="_106132216" class="fil6" points="122.624,43.4847 151.262,55.6998 128.714,29.2063 129.744,26.7909 131.805,21.96 131.844,21.868 136.505,23.8557 141.349,25.9221 146.194,27.9885 177.445,64.7086 185.886,44.9188 207.503,54.1391 199.062,73.9289 247.195,71.0693 252.04,73.1357 261.505,77.2819 260.475,79.6973 259.445,82.1128 258.415,84.5282 223.686,86.5914 252.324,98.8066 243.104,120.423 214.466,108.208 237.014,134.702 235.983,137.117 233.923,141.948 233.884,142.04 229.224,140.052 224.379,137.986 219.534,135.92 188.283,99.1994 179.842,118.989 158.225,109.769 166.666,89.9791 118.533,92.8387 113.688,90.7723 104.183,86.7181 104.223,86.6261 105.253,84.2107 106.283,81.7952 107.313,79.3798 142.042,77.3166 113.404,65.1014 "/> <polygon id="_106130440" class="fil7" points="234.953,139.533 233.923,141.948 199.932,102.009 209.621,106.142 235.983,137.117 "/> <polygon id="_110518568" class="fil7" points="256.885,75.2021 261.545,77.1899 261.505,77.2819 209.152,80.3922 199.463,76.2593 252.04,73.1357 "/> <polygon id="_110517656" class="fil7" points="130.775,24.3754 131.805,21.96 165.796,61.8991 156.107,57.7662 129.744,26.7909 "/> <polygon id="_110517176" class="fil7" points="108.844,88.7059 104.183,86.7181 104.223,86.6261 156.576,83.5158 166.265,87.6487 113.688,90.7723 "/> <polygon id="_110516168" class="fil7" points="120.78,47.808 179.145,72.7029 190.209,46.7628 203.18,52.295 192.115,78.2351 250.48,103.13 244.948,116.1 186.583,91.2051 175.519,117.145 162.548,111.613 173.613,85.6729 115.248,60.7781 "/> </g> </g> </g> </svg>