<?xml version="1.0" encoding="UTF-8"?>
<svg data-name="Ebene 1" viewBox="0 0 800 800" xmlns="http://www.w3.org/2000/svg">
 <defs>
  <clipPath id="d">
   <circle cx="400" cy="400" r="400" fill="none"/>
  </clipPath>
  <linearGradient id="c" x1="439.89" x2="159.85" y1="365.39" y2="645.43" gradientUnits="userSpaceOnUse">
   <stop offset="0"/>
   <stop stop-opacity="0" offset="1"/>
  </linearGradient>
 </defs>
 <g clip-path="url(#d)">
  <circle cx="400" cy="400" r="400" fill="#1c8adb"/>
  <path d="m258.85 784.85l263.06-263.03c10.841-10.058 17.771-24.528 18.559-38.685 11.956-14.378 19.686-32.221 21.323-49.367 1.748-18.31-3.4932-34.973-14.844-47.66 13.177-18.148 16.043-40.896 7.5186-62.148-9.5576-23.828-31.901-40.458-59.081-44.358-3.4395-11.263-12.155-21.102-25.069-28.127-20.179-10.978-46.294-12.856-66.252-5.0176a71.214 71.214 0 0 0 -59.418 -0.7061 73.678 73.678 0 0 0 -24.126 16.822l-16.1 16.088a71.603 71.603 0 0 0 -37.446 21.166l-247.58 247.58c45.204 114.89 122.04 197.12 239.45 237.45z" fill="url(#c)" opacity=".42"/>
  <path d="m546.96 386.11c13.177-18.148 16.043-40.896 7.5186-62.148-9.5576-23.828-31.901-40.458-59.081-44.358-3.4395-11.263-12.155-21.102-25.069-28.127-20.179-10.978-46.294-12.856-66.252-5.0176a71.214 71.214 0 0 0 -59.418 -0.7061c-15.848 6.8813-28.785 19.051-34.374 31.963-23.946 2.744-45.702 18.544-56.381 41.369-10.478 22.398-8.313 47.575 5.6265 68.344-19.327 31.233-17.562 61.476 5.2671 89.983 5.8438 36.343 25.15 57.007 57.428 61.474 25.748 23.546 52.86 31.764 80.668 24.463a50.488 50.488 0 0 0 22.753 4.9541 75.921 75.921 0 0 0 28.426 -5.84c14.824-6.0537 25.967-15.728 31.01-26.63a51.693 51.693 0 0 0 35.713 -12.969c11.494-10.083 18.87-25.079 19.686-39.727 11.956-14.377 19.687-32.22 21.324-49.367 1.7479-18.31-3.4934-34.973-14.844-47.66zm-216.25 140.18l-1.8286-1.7275-2.5-0.2764c-27.461-3.03-42.407-19.222-47.03-50.948-0.6383-5.8219 3.1824-19.115 12.063-29.079 7-7.8535 15.295-11.836 24.656-11.836a7.5 7.5 0 0 0 0 -15c-13.627 0-26.025 5.8281-35.854 16.856a66.394 66.394 0 0 0 -12.381 20.552c-10.477-20.3-8.1472-41.181 6.9832-63.405l3.0713-4.5117-3.3481-4.31c-13.404-17.254-15.974-38.089-7.05-57.163 9.0781-19.404 28.106-32.405 48.475-33.121l5.5078-0.1934 1.46-5.3145c2.8511-10.374 13.982-21.346 27.698-27.301a56.753 56.753 0 0 1 45.715 -0.0864v290.06c-22.44 4.8996-43.969-2.7202-65.638-23.198zm197.49-51.88c-7.6575 4.2883-14.536 5.7364-25.633 5.4871-0.0586-1e-3 -0.1172-2e-3 -0.1748-2e-3a7.5 7.5 0 0 0 -0.1689 14.998c0.9561 0.0215 1.9 0.0342 2.8389 0.0342a64.645 64.645 0 0 0 18.373 -2.3191 44.685 44.685 0 0 1 -12.533 18.978 36.697 36.697 0 0 1 -29.947 8.8916l-6.7236-0.9121-1.5781 6.6c-2.0449 8.5488-11.338 17.136-24.254 22.41-13.409 5.4771-27.421 6.2015-37.054 2.1543v-290.94c15.613-5.42 36.201-3.6281 51.814 4.863 10.81 5.8809 17.44 13.994 18.666 22.844l0.8281 5.98 6.02 0.4678c24.302 1.8872 43.697 15.196 51.882 35.601a49.2 49.2 0 0 1 -9.1309 51.964q-1.5365 1.5038-2.9462 2.91c-10.257 10.188-15.405 15.301-39.927 18.252a7.5006 7.5006 0 0 0 0.8867 14.947 7.7 7.7 0 0 0 0.9063 -0.0547c26.583-3.2 35.136-9.257 46.445-20.277 18.626 22.152 10.259 55.122-8.5896 77.123z" fill="#fff"/>
  <path d="m347.81 430.7a7.5 7.5 0 1 0 6.9551 13.289 30.467 30.467 0 0 0 16.217 -32.323c-1.9585-10.973-10.956-23.595-30.339-26.109a7.5 7.5 0 0 0 -1.93 14.875c9.6323 1.25 16.175 6.4346 17.502 13.87 1.1903 6.6661-2.1091 13.104-8.4045 16.398z" fill="#fff"/>
  <path d="m438.73 322.31c11.549-10.257 22.044-2.9673 27.272 2.292 10.051 10.113 15.363 27.931 6.9141 37.329a7.5 7.5 0 1 0 11.154 10.028c14.712-16.364 7.5977-42.812-7.43-57.932-14.575-14.663-33.363-15.816-47.872-2.9336a7.5 7.5 0 0 0 9.9609 11.216z" fill="#fff"/>
  <path d="m475.54 427.95c-11.409 2.0488-21.499-5.28-25.194-13.225-1.8311-3.9355-3.7139-11.524 4.2441-18.127a7.5 7.5 0 1 0 -9.5781 -11.544c-11.131 9.2354-14.299 23.028-8.2676 35.997 5.4707 11.762 18.714 22.263 34.782 22.262a37.614 37.614 0 0 0 6.6719 -0.6016 7.5 7.5 0 1 0 -2.6582 -14.762z" fill="#fff"/>
  <path d="m329.8 370.28a7.5008 7.5008 0 0 0 -1.3921 -10.515c-5.626-4.31-8.0132-9.8271-7.0957-16.398 1.312-9.394 9.2925-18.988 18.975-22.812a21.694 21.694 0 0 1 22.652 3.4668 7.5 7.5 0 1 0 9.4277 -11.667 36.849 36.849 0 0 0 -37.59 -5.751c-14.628 5.7783-26.274 20.042-28.32 34.688-1.6724 11.971 2.8833 22.761 12.828 30.38a7.4995 7.4995 0 0 0 10.515 -1.3921z" fill="#fff"/>
  <path d="m479 465.48c-13.796-5.1963-29.079-1.666-38.035 8.7783-8.0615 9.4043-8.9395 21.995-2.3477 33.68a7.5 7.5 0 1 0 13.064 -7.3691c-3.458-6.1318-3.22-12.008 0.6719-16.548 3.915-4.5674 12.268-7.9287 21.359-4.5039a7.5 7.5 0 0 0 5.2871 -14.037z" fill="#fff"/>
  <path d="m362.92 465.79c-18.157-10.044-37.874-7.7051-49.063 5.82a7.5 7.5 0 1 0 11.558 9.5605c7.4443-8.998 20.553-7.6162 30.245-2.2549 10.845 5.998 19.824 17.988 15.437 31.254a7.5 7.5 0 1 0 14.241 4.709c7.0855-21.424-6.1537-40.092-22.417-49.088z" fill="#fff"/>
 </g>
</svg>
